# AST/ASF file generated using VICON BodyLanguage
# -----------------------------------------------
:version 1.10
:name VICON
:units
  mass 1.0
  length 0.45
  angle deg
:documentation
   .ast/.asf automatically generated from VICON data using
   VICON BodyBuilder and BodyLanguage model FoxedUp or BRILLIANT.MOD
:root
   order TX TY TZ RX RY RZ
   axis XYZ
   position 0 0 0  
   orientation 0 0 0 
:bonedata
  begin
     id 1 
     name lhipjoint
     direction 0.604623 -0.733026 0.311616 
     length 2.56391 
     axis 0 0 0  XYZ
  end
  begin
     id 2 
     name lfemur
     direction 0.34202 -0.939693 0  
     length 7.75596  
     axis 0 0 20  XYZ
    dof rx ry rz
    limits (-160.0 20.0)
           (-70.0 70.0)
           (-60.0 70.0)
  end
  begin
     id 3 
     name ltibia
     direction 0.34202 -0.939693 0   
     length 7.63697   
     axis 0 0 20   XYZ
    dof rx
    limits (-10.0 170.0)
  end
  begin
     id 4 
     name lfoot
     direction 0.048038 -0.131983 0.990087   
     length 1.94388   
     axis -90 7.62852e-016 20   XYZ
    dof rx rz
    limits (-45.0 90.0)
           (-70.0 20.0)
  end
  begin
     id 5 
     name ltoes
     direction 1.53565e-011 -4.21929e-011 1   
     length 0.984801   
     axis -90 7.62852e-016 20   XYZ
    dof rx
    limits (-90.0 20.0)
  end
  begin
     id 6 
     name rhipjoint
     direction -0.609162 -0.729836 0.31026   
     length 2.57511  
     axis 0 0 0  XYZ 
  end
  begin
     id 7 
     name rfemur
     direction -0.34202 -0.939693 0   
     length 7.60772   
     axis 0 0 -20   XYZ
    dof rx ry rz
    limits (-160.0 20.0)
           (-70.0 70.0)
           (-70.0 60.0)
  end
  begin
     id 8 
     name rtibia
     direction -0.34202 -0.939693 0   
     length 7.68497   
     axis 0 0 -20   XYZ
    dof rx
    limits (-10.0 170.0)
 end
 begin
     id 9 
     name rfoot
     direction -0.0969806 -0.266452 0.958957   
     length 2.01398  
     axis -90 -7.62852e-016 -20   XYZ
    dof rx rz
    limits (-45.0 90.0)
           (-20.0 70.0)
  end
  begin
     id 10 
     name rtoes
     direction -1.53552e-011 -4.21869e-011 1   
     length 1.00896   
     axis -90 -7.62852e-016 -20   XYZ
    dof rx
    limits (-90.0 20.0)
  end
  begin
     id 11 
     name lowerback
     direction 0.0305179 0.993923 -0.10576   
     length 2.09077   
     axis 0 0 0   XYZ
    dof rx ry rz
    limits (-20.0 45.0)
           (-30.0 30.0)
           (-30.0 30.0)
  end
  begin
     id 12 
     name upperback
     direction -0.0137909 0.999867 0.00873764   
     length 2.08918   
     axis 0 0 0   XYZ
    dof rx ry rz
    limits (-20.0 45.0)
           (-30.0 30.0)
           (-30.0 30.0)
  end
  begin
     id 13 
     name thorax
     direction -0.0278536 0.997917 0.0581839   
     length 2.11939   
     axis 0 0 0   XYZ
    dof rx ry rz
    limits (-20.0 45.0)
           (-30.0 30.0)
           (-30.0 30.0)
  end
  begin
     id 14 
     name lowerneck
     direction 0.0138689 0.999837 -0.0116016   
     length 1.74353   
     axis 0 0 0   XYZ
    dof rx ry rz
    limits (-20.0 45.0)
           (-30.0 30.0)
           (-30.0 30.0)
  end
  begin
     id 15 
     name upperneck
     direction -0.00992078 0.999667 0.0238149   
     length 1.71734   
     axis 0 0 0   XYZ
    dof rx ry rz
    limits (-20.0 45.0)
           (-30.0 30.0)
           (-30.0 30.0)
  end
  begin
     id 16
     name head
     direction -0.00530555 0.999941 0.00944937  
     length 1.78249  
     axis 0 0 0   XYZ
    dof rx ry rz
    limits (-20.0 45.0)
           (-30.0 30.0)
           (-30.0 30.0)
  end
  begin
     id 17 
     name lclavicle
     direction 0.929165 0.366864 0.0454227  
     length 3.65686  
     axis 0 0 0   XYZ
    dof ry rz
    limits (-20.0 10.0)
           (0.0 20.0)
  end
  begin
     id 18 
     name lhumerus
     direction 1 -4.4897e-011 3.05413e-018   
     length 5.15218   
     axis -180 -30 -90   XYZ
    dof rx ry rz
    limits (-60.0 90.0)
           (-90.0 90.0)
           (-90.0 90.0)
  end
  begin
     id 19
     name lradius
     direction 1 -4.48963e-011 5.40022e-027   
     length 3.49459   
     axis -180 -30 -90   XYZ
    dof rx
    limits (-10.0 170.0)
  end
  begin
     id 20
     name lwrist
     direction 1 -4.48966e-011 9.79369e-027   
     length 1.7473   
     axis -4.67603e-015 90 90   XYZ
    dof ry
    limits (-180.0 0.0)
 end
  begin
     id 21 
     name lhand
     direction 1 -4.48996e-011 1.9593e-026   
     length 0.512466   
     axis -1.24987e-014 90 90   XYZ
    dof rx rz
    limits (-90.0 90.0)
           (-45.0 45.0)
  end
  begin
     id 22 
     name lfingers
     direction 1 -4.48931e-011 3.91616e-026   
     length 0.413163   
     axis -2.49979e-014 90 90   XYZ
    dof rx
    limits (0.0 90.0)
  end
  begin
     id 23
     name lthumb
     direction 0.707107 -6.34959e-011 0.707107   
     length 0.593222   
     axis -90 45 5.69224e-014   XYZ
    dof rx rz
    limits (-45.0 45.0)
           (-45.0 45.0)
  end
  begin
     id 24 
     name rclavicle
     direction -0.951469 0.307727 0.00346571   
     length 3.42864  
     axis 0 0 0   XYZ 
    dof ry rz
    limits (-10.0 20.0)
           (-20.0 0.0)
  end
  begin
     id 25 
     name rhumerus
     direction -1 -4.48967e-011 2.58643e-027  
     length 5.44344   
     axis -180 30 90   XYZ
    dof rx ry rz
    limits (-90.0 60.0)
           (-90.0 90.0)
           (-90.0 90.0)
  end
  begin
     id 26 
     name rradius
     direction -1 -4.48973e-011 4.26485e-028   
     length 3.58403   
     axis -180 30 90   XYZ
    dof rx
    limits (-10.0 170.0)
  end
  begin
     id 27 
     name rwrist
     direction -1 -4.48962e-011 9.79331e-027   
     length 1.79202   
     axis -4.67603e-015 -90 -90   XYZ
    dof ry
    limits (-180.0 0.0)
  end
  begin
     id 28
     name rhand
     direction -1 -4.48975e-011 1.95891e-026   
     length 0.34249   
     axis -1.24987e-014 -90 -90   XYZ
    dof rx rz
    limits (-90.0 90.0)
           (-45.0 45.0)
  end
  begin
     id 29
     name rfingers
     direction -1 -4.48893e-011 3.9147e-026   
     length 0.276124   
     axis -2.49979e-014 -90 -90   XYZ
    dof rx
    limits (0.0 90.0)
  end
  begin
     id 30
     name rthumb
     direction -0.707107 -6.34898e-011 0.707107   
     length 0.39646   
     axis -90 -45 -5.69224e-014   XYZ
    dof rx rz
    limits (-45.0 45.0)
           (-45.0 45.0)
  end
:hierarchy
  begin
    root lhipjoint rhipjoint lowerback
    lhipjoint lfemur
    lfemur ltibia
    ltibia lfoot
    lfoot ltoes
    rhipjoint rfemur
    rfemur rtibia
    rtibia rfoot
    rfoot rtoes
    lowerback upperback
    upperback thorax
    thorax lowerneck lclavicle rclavicle
    lowerneck upperneck
    upperneck head
    lclavicle lhumerus
    lhumerus lradius
    lradius lwrist
    lwrist lhand lthumb
    lhand lfingers
    rclavicle rhumerus
    rhumerus rradius
    rradius rwrist
    rwrist rhand rthumb
    rhand rfingers
  end

#!OML:ASF H:\charlestonDancing\Project 1\Capture day 1\Session 1\femaleDancer.ASF
:FULLY-SPECIFIED
:DEGREES
109
root -9.34615 17.3407 -7.70074 -352.497 7.12579 -357.936
lowerback 16.7612 -0.498876 5.08949
upperback 1.71787 0.528613 2.91542
thorax -7.54898 0.148396 0.119159
lowerneck -1.0133 -4.2452 -2.45654
upperneck -1.67424 -5.5819 7.01324
head -0.0639662 -2.79574 2.60758
rclavicle 1.98785e-014 -1.43125e-014
rhumerus 11.8625 34.7433 -39.1935
rradius 85.2833
rwrist -17.9819
rhand -9.7568 -26.1245
rfingers 7.12502
rthumb 16.2178 -55.4661
lclavicle 1.98785e-014 -1.43125e-014
lhumerus -6.7384 -22.7307 57.3183
lradius 86.6781
lwrist 33.124
lhand -4.79183 22.2528
lfingers 7.12502
lthumb 20.9934 51.1366
rfemur -18.4175 16.0602 12.4257
rtibia 46.1382
rfoot -29.3282 -4.3689
rtoes -22.8783
lfemur -27.6762 -14.8158 -2.04833
ltibia 47.3199
lfoot -3.86731 -6.6335
ltoes -37.2916
110
root -9.05505 17.3775 -7.58697 -352.444 4.11101 -357.306
lowerback 16.5776 -0.245711 4.39557
upperback 1.52592 0.703274 2.63696
thorax -7.65266 0.243998 0.173212
lowerneck -0.434929 -4.48045 -2.78415
upperneck -2.10338 -5.8736 7.60188
head -0.254349 -2.95947 2.88341
rclavicle -4.77083e-015 -7.95139e-015
rhumerus 12.1674 35.2996 -38.6864
rradius 85.3561
rwrist -18.0503
rhand -9.49026 -25.8729
rfingers 7.12502
rthumb 16.4745 -55.1934
lclavicle -4.77083e-015 -7.95139e-015
lhumerus -7.33947 -22.8565 57.0137
lradius 87.2902
lwrist 33.0634
lhand -4.92314 22.7452
lfingers 7.12502
lthumb 20.8673 51.643
rfemur -19.2047 16.5719 10.9441
rtibia 47.6331
rfoot -27.5103 -4.06093
rtoes -21.0906
lfemur -25.5183 -12.5359 -4.57399
ltibia 46.8617
lfoot -5.72285 -6.54696
ltoes -38.113
111
root -8.78113 17.4172 -7.48394 -352.395 1.34654 -357.615
lowerback 16.4624 -0.0456764 4.74649
upperback 1.32104 1.02448 2.57662
thorax -7.79453 0.379883 -0.160929
lowerneck -0.0759959 -4.92168 -3.03582
upperneck -2.47086 -6.44332 8.09752
head -0.374794 -3.25877 3.10894
rclavicle 4.77083e-015 1.59028e-015
rhumerus 12.3192 35.5628 -38.109
rradius 85.574
rwrist -18.1178
rhand -9.09511 -25.4521
rfingers 7.12502
rthumb 16.8549 -54.7406
lclavicle 4.77083e-015 1.59028e-015
lhumerus -7.63603 -23.2666 56.4612
lradius 88.0355
lwrist 33.6139
lhand -5.70555 23.4602
lfingers 7.12502
lthumb 20.1154 52.4388
rfemur -20.5077 16.3932 10.8286
rtibia 49.756
rfoot -24.961 -5.14818
rtoes -22.1706
lfemur -23.77 -11.2845 -5.66064
ltibia 46.341
lfoot -7.2625 -6.19387
ltoes -38.4689
112
root -8.5352 17.4655 -7.38082 -352.002 -1.32399 -355.879
lowerback 15.9335 0.182882 2.90158
upperback 1.09157 0.923239 2.01101
thorax -7.76869 0.381686 0.300725
lowerneck -0.482731 -5.31506 -3.1876
upperneck -2.02635 -6.9904 8.4644
head -0.110163 -3.51727 3.23136
rclavicle 2.18663e-014 3.33958e-014
rhumerus 12.9249 35.8488 -37.3167
rradius 85.8997
rwrist -18.1439
rhand -8.93088 -25.0805
rfingers 7.12502
rthumb 17.013 -54.3554
lclavicle 2.18663e-014 3.33958e-014
lhumerus -7.83013 -23.3833 55.5611
lradius 88.6765
lwrist 34.2642
lhand -6.68218 24.0548
lfingers 7.12502
lthumb 19.1765 53.1294
rfemur -22.5464 15.1008 8.52005
rtibia 52.4184
rfoot -22.284 -5.68916
rtoes -13.6682
lfemur -22.6899 -10.9587 -8.88858
ltibia 45.8303
lfoot -8.44458 -5.09072
ltoes -39.3845
113
root -8.29523 17.517 -7.2789 -352.144 -3.89318 -355.281
lowerback 15.8206 0.199946 2.26597
upperback 1.04208 0.808769 1.77885
thorax -7.7653 0.34321 0.438087
lowerneck -0.705678 -5.42968 -3.80461
upperneck -1.6012 -7.1664 9.12883
head 0.126903 -3.5918 3.55403
rclavicle 1.31198e-014 7.95139e-015
rhumerus 14.0153 36.208 -36.3295
rradius 86.2366
rwrist -18.1437
rhand -8.86334 -24.7079
rfingers 7.12502
rthumb 17.078 -53.9773
lclavicle 1.31198e-014 7.95139e-015
lhumerus -8.04895 -23.0829 54.6196
lradius 89.1612
lwrist 34.6854
lhand -7.39849 24.7613
lfingers 7.12502
lthumb 18.4875 53.9027
rfemur -24.2531 13.221 8.14999
rtibia 55.0395
rfoot -19.8588 -8.09886
rtoes -12.3891
lfemur -21.3987 -10.2787 -10.9464
ltibia 45.6186
lfoot -9.21635 -3.89563
ltoes -41.4661
114
root -8.07507 17.5609 -7.17793 -352.426 -6.26203 -355.22
lowerback 15.8521 0.150783 2.07863
upperback 1.03708 0.71229 1.80879
thorax -7.79156 0.302627 0.597732
lowerneck -0.920544 -5.5798 -4.85516
upperneck -1.13411 -7.39361 9.88611
head 0.408393 -3.68941 3.99568
rclavicle -6.75868e-015 1.27222e-014
rhumerus 15.2449 36.5589 -35.294
rradius 86.5137
rwrist -18.1908
rhand -8.59038 -24.4855
rfingers 7.12502
rthumb 17.3407 -53.732
lclavicle -6.75868e-015 1.27222e-014
lhumerus -8.28219 -22.6958 53.8358
lradius 89.5801
lwrist 35.129
lhand -8.15168 25.5389
lfingers 7.12502
lthumb 17.7629 54.7476
rfemur -25.6086 10.8854 8.89827
rtibia 57.1164
rfoot -17.812 -11.2298
rtoes -15.7858
lfemur -20.2021 -9.34189 -12.3813
ltibia 45.6021
lfoot -9.55033 -2.62435
ltoes -42.8613
115
root -7.87839 17.6033 -7.07775 -352.592 -8.43564 -355.459
lowerback 15.795 0.107092 2.17285
upperback 0.995401 0.677818 1.92108
thorax -7.80547 0.283731 0.672582
lowerneck -0.66396 -5.69783 -5.69006
upperneck -1.04284 -7.56701 10.4953
head 0.47172 -3.77964 4.37551
rclavicle -3.06128e-014 4.77083e-015
rhumerus 16.2112 36.7825 -34.4786
rradius 86.7633
rwrist -18.4139
rhand -8.65417 -24.5225
rfingers 7.12502
rthumb 17.2793 -53.7743
lclavicle -3.06128e-014 4.77083e-015
lhumerus -8.41678 -22.4304 53.0694
lradius 89.8518
lwrist 35.2554
lhand -7.93425 25.4412
lfingers 7.12502
lthumb 17.9721 54.6309
rfemur -26.7576 8.1533 10.4359
rtibia 58.3282
rfoot -16.9407 -14.3686
rtoes -13.4952
lfemur -19.4204 -8.19687 -13.3591
ltibia 45.9215
lfoot -9.49599 -1.46685
ltoes -42.9155
116
root -7.70178 17.6739 -6.96484 -352.856 -10.6536 -355.708
lowerback 15.7474 0.132411 2.36257
upperback 0.979836 0.743225 1.94217
thorax -7.79353 0.308204 0.573459
lowerneck -0.0809041 -5.77854 -6.08936
upperneck -1.1094 -7.69427 10.905
head 0.394728 -3.85973 4.61942
rclavicle 0 -1.74931e-014
rhumerus 16.8189 36.8946 -34.0434
rradius 86.9772
rwrist -18.6803
rhand -8.77103 -24.3916
rfingers 7.12502
rthumb 17.1668 -53.6532
lclavicle 0 -1.74931e-014
lhumerus -8.46126 -22.1373 52.4174
lradius 89.778
lwrist 34.6939
lhand -5.86575 23.9194
lfingers 7.12502
lthumb 19.9614 52.9141
rfemur -27.3801 5.32671 12.2108
rtibia 58.5043
rfoot -17.6939 -14.396
rtoes -13.2872
lfemur -18.6471 -6.84851 -14.2645
ltibia 46.4767
lfoot -9.12461 -0.48374
ltoes -42.4794
117
root -7.54443 17.7398 -6.84812 -353.115 -13.021 -356.039
lowerback 15.651 0.253256 2.55524
upperback 0.983296 0.934165 1.98683
thorax -7.73261 0.394043 0.470461
lowerneck 0.693428 -5.82993 -6.43634
upperneck -1.25158 -7.78697 11.2891
head 0.252021 -3.93001 4.85686
rclavicle -1.15295e-014 3.02153e-014
rhumerus 17.1645 36.8577 -34.0528
rradius 86.9428
rwrist -18.6754
rhand -8.51214 -24.1199
rfingers 7.12502
rthumb 17.416 -53.3597
lclavicle -1.15295e-014 3.02153e-014
lhumerus -8.53473 -21.8377 52.0743
lradius 89.5107
lwrist 34.0671
lhand -7.80055 24.9671
lfingers 7.12502
lthumb 18.1007 54.1449
rfemur -27.7423 2.87199 14.2928
rtibia 57.8999
rfoot -18.759 -14.1175
rtoes -13.9113
lfemur -18.0682 -5.1002 -14.9507
ltibia 47.3735
lfoot -8.14631 0.313
ltoes -41.6019
118
root -7.39836 17.7975 -6.73059 -353.218 -15.4007 -356.616
lowerback 15.5029 0.37688 2.94441
upperback 0.972385 1.16761 2.12057
thorax -7.65517 0.495421 0.343359
lowerneck 1.33413 -5.89008 -6.63015
upperneck -1.33616 -7.88637 11.9069
head 0.141096 -4.00109 4.61088
rclavicle -3.61788e-014 1.43125e-014
rhumerus 17.3514 36.6999 -34.4447
rradius 86.6401
rwrist -18.3974
rhand -8.37356 -23.8091
rfingers 7.12502
rthumb 17.5494 -53.037
lclavicle -3.61788e-014 1.43125e-014
lhumerus -8.72064 -21.6718 51.8613
lradius 89.3446
lwrist 33.8164
lhand -7.91723 25.0011
lfingers 7.12502
lthumb 17.9885 54.1892
rfemur -27.9312 0.530597 16.7799
rtibia 56.6755
rfoot -19.2696 -15.0021
rtoes -17.1959
lfemur -17.9134 -2.99067 -15.218
ltibia 48.7271
lfoot -6.41276 0.888739
ltoes -39.4698
119
root -7.27059 17.8448 -6.6072 -353.306 -17.5595 -356.695
lowerback 15.1903 0.468099 2.87589
upperback 0.942188 1.26245 2.1289
thorax -7.51349 0.544768 0.373081
lowerneck 1.18037 -6.0822 -6.45411
upperneck -0.665708 -8.18971 11.647
head 0.371944 -4.13387 4.47939
rclavicle 9.14409e-015 4.29375e-014
rhumerus 17.5502 36.5549 -34.8281
rradius 86.3751
rwrist -18.148
rhand -8.18285 -23.3638
rfingers 7.12502
rthumb 17.7329 -52.5753
lclavicle 9.14409e-015 4.29375e-014
lhumerus -9.05865 -22.1492 51.782
lradius 90.0564
lwrist 36.2214
lhand -10.2963 26.5703
lfingers 7.12502
lthumb 15.6983 55.9535
rfemur -28.0305 -2.07826 18.7682
rtibia 55.1902
rfoot -19.509 -15.4235
rtoes -22.0724
lfemur -18.3975 -0.755998 -15.9182
ltibia 50.686
lfoot -4.04374 1.54465
ltoes -38.836
120
root -7.15321 17.8783 -6.48771 -353.371 -19.56 -356.739
lowerback 14.9813 0.546022 2.97644
upperback 0.865778 1.36905 2.05373
thorax -7.47334 0.59141 0.215559
lowerneck 1.12807 -6.20296 -6.27247
upperneck 0.0202442 -8.39783 10.8976
head 0.620299 -4.22619 4.66006
rclavicle 9.14409e-015 0
rhumerus 17.6313 36.4521 -35.1362
rradius 86.2367
rwrist -18.0506
rhand -7.85688 -22.927
rfingers 7.12502
rthumb 18.0465 -52.1098
lclavicle 9.14409e-015 0
lhumerus -9.19661 -22.3176 51.6973
lradius 90.0767
lwrist 36.557
lhand -10.2033 25.8028
lfingers 7.12502
lthumb 15.7879 55.1789
rfemur -28.0665 -4.20304 20.4515
rtibia 53.5845
rfoot -20.6015 -13.4058
rtoes -17.9051
lfemur -19.5667 1.71614 -16.6004
ltibia 53.2882
lfoot -0.802271 2.08737
ltoes -42.0787
121
root -7.04526 17.8914 -6.3769 -353.329 -21.3776 -356.748
lowerback 14.7996 0.588248 3.18585
upperback 0.717184 1.44687 1.92291
thorax -7.52163 0.618066 -0.0565168
lowerneck 1.07483 -6.35049 -6.29464
upperneck 0.623882 -8.63728 10.7109
head 0.840687 -4.33503 4.57796
rclavicle 1.47101e-014 7.95139e-015
rhumerus 17.6279 36.3903 -35.4019
rradius 86.1784
rwrist -18.0658
rhand -7.70502 -22.6105
rfingers 7.12502
rthumb 18.1927 -51.7797
lclavicle 1.47101e-014 7.95139e-015
lhumerus -9.17671 -22.2654 51.501
lradius 89.4678
lwrist 35.0069
lhand -9.9951 25.8101
lfingers 7.12502
lthumb 15.9884 55.1703
rfemur -28.1254 -6.36996 22.0965
rtibia 52.031
rfoot -19.4002 -12.376
rtoes -21.2895
lfemur -21.4377 3.8193 -17.1504
ltibia 56.4502
lfoot 3.05169 2.45208
ltoes -39.2599
122
root -6.93939 17.8853 -6.26857 -353.119 -22.8947 -356.979
lowerback 14.5091 0.451852 3.5372
upperback 0.622539 1.31855 1.9915
thorax -7.45788 0.545045 -0.151822
lowerneck 0.915191 -6.40104 -6.67872
upperneck 1.04191 -8.73393 10.6873
head 1.03405 -4.37487 4.62872
rclavicle -2.46493e-014 -2.06736e-014
rhumerus 18.271 36.4674 -35.2398
rradius 86.0446
rwrist -17.9936
rhand -7.55693 -22.3289
rfingers 7.12502
rthumb 18.3351 -51.4848
lclavicle -2.46493e-014 -2.06736e-014
lhumerus -9.34679 -22.1854 51.3835
lradius 89.3353
lwrist 34.2732
lhand -10.2979 26.1899
lfingers 7.12502
lthumb 15.6967 55.5732
rfemur -28.1342 -8.55275 23.81
rtibia 50.5721
rfoot -17.088 -12.6534
rtoes -26.4635
lfemur -23.7453 4.97534 -17.1889
ltibia 59.8549
lfoot 8.42798 2.90851
ltoes -30.8758
123
root -6.83041 17.8601 -6.15988 -352.522 -24.0245 -358.184
lowerback 14.1836 0.114348 4.76406
upperback 0.615 1.08153 2.42643
thorax -7.27854 0.397285 -0.328603
lowerneck 0.545693 -6.37084 -7.03371
upperneck 1.37123 -8.69652 10.4376
head 1.20955 -4.34492 4.59048
rclavicle 2.14687e-014 1.11319e-014
rhumerus 19.3944 36.63 -34.7197
rradius 85.8189
rwrist -17.7293
rhand -7.39252 -22.0271
rfingers 7.12502
rthumb 18.4933 -51.168
lclavicle 2.14687e-014 1.11319e-014
lhumerus -9.52312 -21.962 51.3527
lradius 89.3086
lwrist 33.2952
lhand -9.06569 25.2037
lfingers 7.12502
lthumb 16.8832 54.4898
rfemur -27.9703 -10.5632 26.2572
rtibia 49.3314
rfoot -19.1208 -16.262
rtoes -13.0574
lfemur -26.3288 5.41545 -16.0328
ltibia 63.2917
lfoot 13.5583 3.29684
ltoes -23.5395
